<svg id="Layer_1" data-name="Layer 1" xmlns="http://www.w3.org/2000/svg" viewBox="0 0 423.58 112.52"><defs><style>.cls-1{fill:#fff;}.cls-2{font-size:31.92px;font-family:Museo Sans Rounded;}.cls-2,.cls-3{fill:#231f20;}</style></defs><title>recent-btn</title><g id="GfEr7H.tif"><path class="cls-1" d="M588.11,364.47H177.7c-3.62,0-6.58-2.7-6.58-6l12-73.38c0-3.3,3-6,6.58-6L549.09,252c3.62,0,6.58,2.7,6.58,6l39,100.52C594.7,361.77,591.73,364.47,588.11,364.47Z" transform="translate(-171.11 -251.96)"/></g><text class="cls-2" transform="translate(46.49 79.09)">R<tspan x="19.82" y="0">e</tspan><tspan x="37.32" y="0">c</tspan><tspan x="53.92" y="0">e</tspan><tspan x="71.41" y="0">n</tspan><tspan x="90.73" y="0">t</tspan><tspan x="103.27" y="0">e p</tspan><tspan x="148.54" y="0">r</tspan><tspan x="161.28" y="0">ojec</tspan><tspan x="224.55" y="0">t</tspan><tspan x="237.09" y="0">en</tspan></text><path class="cls-3" d="M527.08,315.43h0a3.79,3.79,0,0,0-5.33.26l-4.82,4.82-2.64,2.64-2.64-2.64-4.82-4.82a3.6,3.6,0,1,0-5.07,5.07l4.43,4.43,5.2,5.2a4.21,4.21,0,0,0,1.57,1l0.26,0.09,0.3,0.07a3.59,3.59,0,0,0,.48.07h0.22a3.8,3.8,0,0,0,.49,0l0.23,0a4,4,0,0,0,.56-0.14h0a4.2,4.2,0,0,0,1.66-1l5.2-5.2,4.43-4.43A3.79,3.79,0,0,0,527.08,315.43Z" transform="translate(-171.11 -251.96)"/></svg>